<?xml version="1.0" encoding="utf-8"?>
<!-- Generator: Adobe Illustrator 21.1.0, SVG Export Plug-In . SVG Version: 6.00 Build 0)  -->
<svg version="1.1" id="icon" xmlns="http://www.w3.org/2000/svg" xmlns:xlink="http://www.w3.org/1999/xlink" x="0px" y="0px"
	 viewBox="0 0 20 20" style="enable-background:new 0 0 20 20;" xml:space="preserve">
<style type="text/css">
	.st0{fill:#1D1D1B;}
</style>
<path class="st0" d="M16.6,18.1c0,0.3-0.2,0.5-0.5,0.5H1.9c-0.3,0-0.5-0.2-0.5-0.5V3.9c0-0.3,0.2-0.5,0.5-0.5h8.6L11.9,2h-10
	C0.8,2,0,2.8,0,3.9v14.2c0,1,0.8,1.9,1.9,1.9h14.2c1,0,1.9-0.8,1.9-1.9v-10l-1.4,1.4C16.6,9.5,16.6,18.1,16.6,18.1z"/>
<path class="st0" d="M19.8,2.9l-2.7-2.7c-0.2-0.2-0.6-0.2-0.8,0c0,0,0,0,0,0L8.1,8.4C8,8.4,8,8.5,8,8.6l-1.4,4.1
	c-0.1,0.3,0.1,0.6,0.3,0.7c0.1,0,0.2,0,0.4,0l4.1-1.4c0.1,0,0.2-0.1,0.2-0.1l8.2-8.2C20.1,3.5,20.1,3.1,19.8,2.9z M17.6,4.6
	l-2.3-2.3l0.8-0.8l2.3,2.3L17.6,4.6z"/>
</svg>
