<svg id="DAP-122_markenlogo_global_10_jgoerig_32x32_GMX.png_Kopie" data-name="DAP-122_markenlogo_global_10_jgoerig_32x32_GMX.png Kopie" xmlns="http://www.w3.org/2000/svg" width="32" height="32" viewBox="0 0 32 32">
  <defs>
    <style>
      .cls-1 {
        fill: #1c449b;
      }

      .cls-2 {
        fill: #fff;
        fill-rule: evenodd;
      }
    </style>
  </defs>
  <rect id="Abgerundetes_Rechteck_4" data-name="Abgerundetes Rechteck 4" class="cls-1" width="32" height="32" rx="3" ry="3"/>
  <path id="Form_2" data-name="Form 2" class="cls-2" d="M850.017,468H835v13.051a2.514,2.514,0,0,0,1.871,2.427h0L855,488.006V473A4.983,4.983,0,0,0,850.017,468Zm2.5,13.051H850v-5.726a1.7,1.7,0,0,0-1.843-1.857,1.8,1.8,0,0,0-1.9,1.857v5.726h-2.515v-5.726a1.69,1.69,0,0,0-1.829-1.857,1.788,1.788,0,0,0-1.9,1.857v5.726H837.5V471.013h4.415a3.917,3.917,0,0,1,3.115,1.386,4.307,4.307,0,0,1,7.472,2.984l0.015,5.669h0Z" transform="translate(-829 -462)"/>
</svg>
