<svg id="Ebene_1" xmlns="http://www.w3.org/2000/svg" width="128" height="128" viewBox="0 0 128 128"><style>.st0{fill:#ffd800}.st1{fill:#323131}</style><path class="st0" d="M112 128H16c-8.8 0-16-7.2-16-16V16C0 7.2 7.2 0 16 0h96c8.8 0 16 7.2 16 16v96c0 8.8-7.2 16-16 16z"/><path class="st1" d="M28.864 39.306c1.029.378 2.395-.307 3.384-.482.982-.171 5.005-1.075 4.244-.158-.427.516-1.531.519-2.515.807-1.365.402-3.554.628-3.638 2.383-.195 4.177 6.296 1.398 8.199.719 5.154-1.795 11.064-2.102 16.278-2.974 5.788-.963 11.737-1.052 17.579-1.276 6.148-.236 12.763-.494 18.804.359 1.609.227 3.131.405 4.767.577 1.417.145 4.407 1.447 5.669.851 1.146-.542.626-1.897 1.219-2.589.853-.995 2.533-.823 1.364-2.948-.89-1.619-4.132-2.144-5.81-1.815-.167-1.023.614-.569.82-1.1.296-.765.296-1.947-.2-2.798-.9-1.548-5.18-2.096-5.181-2.095-10.266-1.654-28.735-3.435-48.396-1.142-3.262.382-8.986.788-12.326 2.142-1.478.6-1.456.612-1.639 1.582-.176 1.379.487 2.984 2.144 2.642 3.176-.654 8.784-1.562 10.391-1.969 7.928-2.019 34.32-1.626 37.72-.819 2.1.449 13.641.827 13.918 2.939-26.93-1.116-37.212-1.104-61.393 1.769-2.02.334-3.234.775-4.828 1.315-1.961.659-3.29 3.075-.574 4.08zM64.476 22.61c.942.082 8.382.305 8.81-2.606.243-1.65-1.39-4.329-1.858-4.813-.617-.509-1.977 3.936-2.321-.437-.054-.713-.237-1.817-.574-2.492-.169-.337-.376-.586-.629-.586-.157 0-.334.093-.411.143-.215.139-.52.591-.675.972-.422 1.038-.605 5.05-1.646 5.114-1.132.074-1.096-2.569-.946-3.336.025-.125-.003-.155-.053-.145-.108.03-.142.049-.228.079-.679.261-1.454 1.049-1.511 1.107-1.064 1.092-2.506 3.943-1.777 5.254.755 1.359 3.023 1.675 3.819 1.746zm51.837 57.345c-.079-.57-.246-.919-.633-1.443-1.402-1.918-7.988-3.202-7.991-3.179-3.308-.723-7.117-1.345-11.371-1.863.605-2.875-.028-8.181-.043-10.025.084-3.294.015-11.808-.233-13.96-.189-2.023-.46-2.907-1.569-4.581-.795-1.196-1.04-2.362-2.873-2.179-1.669.167-2.284 2.483-1.997 3.89l.718 2.864c.3.593 1.108 19.169.926 20.785.016.784-.058 1.795-.081 2.65-4.337-.412-9.052-.73-14.101-.951l.2-.157c2.416-1.878 1.579-4.374 1.174-7.094-.552-4.355-.13-16.71-.65-18.199-.351-1.165-1.344-1.837-2.208-2.727-1.066-1.097-2.402-1.433-3.629-.173-1.205 1.093.302 16.694.386 23.548.109 1.435-.21 3.234.361 4.621-.467-.017-12.865-.277-13.905-.257.013-.242-.149-.551-.265-.785-.311-.628-.749-2.097-.875-2.782a29.29 29.29 0 0 1-.428-3.952c-.093-2.835.168-11.603.485-13.897.354-2.536 1.704-7.013-2.694-6.027-.475.107-2.806.396-3.43.887-.724.57-.654 1.996-.682 2.785-.104 2.995-.434 12.43-.415 14.696.023 1.904.362 4.353 1.061 6.212.425 1.13 1.685 2.254 3.002 2.964-2.421.066-4.751.144-5.579.19-4.087.228-7.221.455-10.274.753-.022-.088-.022-.088-.039-.147-.512-1.577.223-8.087 1.642-20.295.342-2.945-.177-3.061-1.968-4.719-1.028-.952-1.899-1.595-3.686-.163-1.135.909-.84 2.077-1.034 3.389-.68 4.578-1.668 11.77-2.089 16.43-.118 1.286.061 4.231.391 6.017.03.084.017.179.059.269-1.773.237-3.56.499-5.573.806-4.905.762-9.241.949-12.187 2.271-1.81.816-1.914 1.087-2.34 1.747-.104.179-.191.385-.226.779-.005.05.036.701.087.894.101.386.285.748.556 1.051.271.302.63.545 1.079.686.224.071 1.588.184 1.733.199 3.291.331 5.104-.469 8.322-1.736 15.944-6.36 61.563-4.434 71.612-2.534 4.364.869 11.1 1.779 15.275 4.171a10.18 10.18 0 0 0 1.903.822c.292.088.574.132.833.193.64.151 1.322.013 1.436-.009.229-.044.45-.111.652-.197.404-.172.732-.421.887-.723.111-.218.251-.635.317-.98.023-.135.005-.593-.029-.835zM20.899 93.667h-4.235l3.729 19.046h4.901l2.85-12.892 2.877 12.892h4.901l3.916-19.046h-3.969l-2.397 14.571-3.117-14.571h-4.129l-3.17 14.517-2.157-14.517zm33.39 0H42.382v19.046h12.174v-3.197h-8.151v-4.741h6.953v-3.197h-6.953v-4.715h7.885v-3.196h-.001zm3.396 0v19.046h7.085c4.475 0 6.606-2.131 6.606-5.327 0-4.076-3.596-4.528-3.596-4.528s2.557-1.092 2.557-4.262c0-3.197-2.051-4.928-6.286-4.928h-6.366v-.001zm4.022 8.018v-5.034h1.332c2.371 0 3.33.799 3.33 2.477 0 1.705-.959 2.557-2.93 2.557h-1.732zm0 8.044v-5.141h2.451c2.051 0 3.17.799 3.17 2.504s-1.039 2.637-3.409 2.637h-2.212zm14.305 3.25c1.226 0 2.078-.853 2.078-2.051 0-1.225-.852-1.971-2.024-1.971-1.226 0-2.104.772-2.104 2.024-.001 1.119.691 1.998 2.05 1.998zm5.529-19.312v19.046h4.741c6.553 0 9.909-3.729 9.909-9.696 0-5.834-2.957-9.35-9.51-9.35h-5.14zm4.023 15.849V96.864h1.092c3.676 0 5.461 2.184 5.461 6.419 0 4.209-1.731 6.233-5.434 6.233h-1.119zm25.553-15.849H99.21v19.046h12.173v-3.197h-8.151v-4.741h6.952v-3.197h-6.952v-4.715h7.884v-3.196h.001z"/></svg>