<svg id="Ebene_1" data-name="Ebene 1" xmlns="http://www.w3.org/2000/svg" width="128" height="128" viewBox="0 0 128 128"><defs><style>.cls-1{fill:#1c449b}.cls-2{fill:#fff}</style></defs><title>Vektor-Smartobjekt4</title><rect class="cls-1" width="127.98" height="127.98" rx="16" ry="16"/><path id="X" class="cls-2" d="M101.94 63.07l8.47-14.09h-8.64l-4.5 7.16-4.84-7.16h-9.46l9.98 14.07-9.98 15.91h9.46l5.4-9.01 6.39 9.01h8.45l-10.73-15.89z"/><path id="M" class="cls-2" d="M70.68 48.98l-6.43 16.03-6.09-16.03h-7.67l-5.1 29.98h7.76l2.51-17.26h.07l6.87 17.26h3.1l7.2-17.26h.1l2.18 17.26h7.79l-4.53-29.98h-7.76z"/><path id="G" class="cls-2" d="M31.15 62.25v6.09h6.32c-.31 3.42-2.89 5.17-6.24 5.17-5.09 0-7.85-4.69-7.85-9.33s2.64-9.4 7.73-9.4a6.75 6.75 0 0 1 6.44 4.73l7.35-3.08c-2.57-5.55-7.32-8.31-13.44-8.31-9.59 0-16.14 6.36-16.14 16 0 9.36 6.51 15.71 15.87 15.71 5 0 9.36-1.78 12.27-5.84 2.64-3.71 3-7.42 3-11.77z"/></svg>