<?xml version="1.0" encoding="utf-8"?>
<!-- Generator: Adobe Illustrator 21.1.0, SVG Export Plug-In . SVG Version: 6.00 Build 0)  -->
<svg version="1.1" id="icon" xmlns="http://www.w3.org/2000/svg" xmlns:xlink="http://www.w3.org/1999/xlink" x="0px" y="0px"
	 viewBox="0 0 36 36" style="enable-background:new 0 0 36 36;" xml:space="preserve">
<style type="text/css">
	.st0{fill:#003D8F;}
	.st1{fill:#FFFFFF;}
</style>
<polygon class="st0" points="1,1 35,1 35,35 1,35 "/>
<path class="st1" d="M22,17.2c0,0.4,0.1,0.8,0.1,0.9c0,1-0.2,2.3-0.4,2.5l-2.8-3.8c1.9-1.6,2.5-2.7,2.5-4.1c0-2-1.6-3.5-3.8-3.5
	c-2.4,0-4.1,1.4-4.1,3.4c0,1.2,0.3,1.8,1.7,3.6c-2.2,1.3-3.4,3.1-3.3,4.8c0.2,2.9,2.4,4.6,5.7,4.6c1.7,0,2.7-0.3,3.8-1.3l0.7,1h3.2
	l-2-2.7c1-1.2,1.3-2.5,1.3-4.5c0-0.1,0-0.6,0-1H22V17.2z M17.4,14.9c-0.9-1.2-1.1-1.5-1.1-2.2s0.5-1.2,1.3-1.2s1.3,0.5,1.3,1.2
	C18.9,13.4,18.5,14.1,17.4,14.9L17.4,14.9z M19.9,22.4c-0.6,0.5-1.2,0.8-2.2,0.8c-1.6,0-2.7-0.8-2.8-2.2c0-0.9,0.5-1.8,2-2.7
	L19.9,22.4L19.9,22.4z"/>
<polygon class="st1" points="10,25.4 10,9.4 4.2,9.4 4.2,12 6.8,12 6.8,25.4 "/>
<polygon class="st1" points="30.5,25.4 30.5,9.4 24.7,9.4 24.7,12 27.3,12 27.3,25.4 "/>
<path class="st1" d="M35,1v34H1V1H35 M36,0h-1H1H0v1v34v1h1h34h1v-1V1V0L36,0z"/>
</svg>
