<?xml version="1.0" encoding="utf-8"?>
<!-- Generator: Adobe Illustrator 21.1.0, SVG Export Plug-In . SVG Version: 6.00 Build 0)  -->
<svg version="1.1" id="icon" xmlns="http://www.w3.org/2000/svg" xmlns:xlink="http://www.w3.org/1999/xlink" x="0px" y="0px"
	 viewBox="0 0 48.8 48.8" style="enable-background:new 0 0 48.8 48.8;" xml:space="preserve">
<style type="text/css">
	.st0{fill:#999999;}
</style>
<path class="st0" d="M24.4,47.8c-8.9,0-16.1-7.2-16.1-16.2c0-3.1,0.9-6.1,2.4-8.6v-7.6c0-7.6,6.1-13.7,13.7-13.7
	C31.9,1.8,38,7.9,38,15.5V23c1.6,2.5,2.5,5.4,2.5,8.6C40.5,40.5,33.3,47.8,24.4,47.8z M21.8,32.4v6.4l0,0v0.1c0,1.4,1.1,2.6,2.6,2.6
	c1.4,0,2.6-1.2,2.6-2.6v-0.1l0,0v-6.4c1.2-0.8,2-2.2,2-3.8c0-2.5-2-4.6-4.5-4.6S20,26,20,28.6C19.8,30.2,20.6,31.6,21.8,32.4z
	 M33.7,15.5c0-5.2-4.2-9.4-9.4-9.4S15,10.3,15,15.5v3c2.6-1.9,5.9-3,9.4-3s6.7,1.1,9.4,3L33.7,15.5L33.7,15.5z"/>
</svg>
