<?xml version="1.0" encoding="utf-8"?>
<!-- Generator: Adobe Illustrator 21.1.0, SVG Export Plug-In . SVG Version: 6.00 Build 0)  -->
<svg version="1.1" id="icon" xmlns="http://www.w3.org/2000/svg" xmlns:xlink="http://www.w3.org/1999/xlink" x="0px" y="0px"
	 viewBox="0 0 20 20" style="enable-background:new 0 0 20 20;" xml:space="preserve">
<style type="text/css">
	.st0{fill:#1D1D1B;}
</style>
<path class="st0" d="M19.3,8.2l-1.7-0.5C17.1,7.5,16.8,7,17,6.5c0-0.1,0-0.1,0.1-0.2L18,4.7c0.2-0.4,0.1-0.8-0.2-1.1l-1.2-1.2
	c-0.3-0.3-0.8-0.4-1.1-0.2L13.7,3c-0.5,0.3-1.1,0.1-1.3-0.4c0-0.1-0.1-0.1-0.1-0.2l-0.5-1.7C11.7,0.3,11.3,0,10.9,0H9.1
	C8.7,0,8.3,0.3,8.2,0.7L7.7,2.4C7.5,2.9,7,3.2,6.5,3.1C6.4,3.1,6.3,3,6.3,3L4.7,2.1C4.3,1.9,3.8,2,3.5,2.3L2.3,3.5
	C2,3.8,1.9,4.3,2.1,4.7L3,6.3c0.3,0.5,0.1,1.1-0.4,1.3c-0.1,0-0.1,0.1-0.2,0.1L0.7,8.2C0.3,8.3,0,8.7,0,9.1v1.7
	c0,0.4,0.3,0.8,0.7,0.9l1.7,0.5c0.5,0.2,0.8,0.7,0.6,1.2c0,0.1,0,0.1-0.1,0.2L2,15.2c-0.2,0.4-0.1,0.8,0.2,1.1l1.2,1.2
	c0.3,0.3,0.8,0.4,1.1,0.2L6.3,17c0.5-0.3,1.1-0.1,1.3,0.4c0,0.1,0.1,0.1,0.1,0.2l0.5,1.7C8.3,19.7,8.7,20,9.1,20h1.7
	c0.4,0,0.8-0.3,0.9-0.7l0.5-1.7c0.2-0.5,0.7-0.8,1.2-0.6c0.1,0,0.1,0,0.2,0.1l1.6,0.9c0.4,0.2,0.8,0.1,1.1-0.2l1.2-1.2
	c0.3-0.3,0.4-0.8,0.2-1.1L17,13.7c-0.3-0.5-0.1-1.1,0.4-1.3c0.1,0,0.1-0.1,0.2-0.1l1.7-0.5c0.4-0.1,0.7-0.5,0.7-0.9V9.1
	C20,8.7,19.7,8.3,19.3,8.2z M10,14.2c-2.3,0-4.2-1.9-4.2-4.2S7.7,5.8,10,5.8s4.2,1.9,4.2,4.2l0,0C14.2,12.3,12.3,14.2,10,14.2z"/>
</svg>
