<svg id="icon" xmlns="http://www.w3.org/2000/svg" width="64" height="64" viewBox="0 0 64 64"><defs><style>.cls-1{fill:#999;}</style></defs><title>Icon_image_placeholder_64x64</title><path class="cls-1" d="M61.54,7H2.47A2.47,2.47,0,0,0,0,9.46V54.35a2.46,2.46,0,0,0,2.46,2.46H61.53A2.46,2.46,0,0,0,64,54.35V9.46A2.47,2.47,0,0,0,61.54,7ZM10.35,14.06a4.93,4.93,0,1,1-3.87,3.87A4.93,4.93,0,0,1,10.35,14.06ZM57.44,51.82H5.8A1.54,1.54,0,0,1,4.61,49.3l9.57-11.52a1.54,1.54,0,0,1,2.27-.11l7.08,7.08a1.53,1.53,0,0,0,2.17,0L40.33,30.12a1.54,1.54,0,0,1,2.26.1l16,19.07A1.54,1.54,0,0,1,57.44,51.82Z"/></svg>