<svg xmlns="http://www.w3.org/2000/svg" width="16" height="16" viewBox="0 0 16 16">
  <defs>
    <style>.cls-1{fill:#1d1d1b;}</style>
  </defs>
  <g id="icon">
    <path class="cls-1" d="M16,11.678v-7.7l-.119-.051L12.039,7.568Z"/>
    <path class="cls-1" d="M11.07,8.464l-2.2,2.084a1.3,1.3,0,0,1-1.755,0L4.922,8.472.387,13.178A2,2,0,0,0,2,14H14a2,2,0,0,0,1.613-.822Z"/>
    <path class="cls-1" d="M7.592,9.206a.619.619,0,0,0,.817,0l7.083-6.528A2,2,0,0,0,14,2H2a2,2,0,0,0-1.492.677Z"/>
    <path class="cls-1" d="M3.953,7.576.107,3.935,0,3.982v7.7Z"/>
  </g>
</svg>
