<?xml version="1.0" encoding="utf-8"?>
<!-- Generator: Adobe Illustrator 21.1.0, SVG Export Plug-In . SVG Version: 6.00 Build 0)  -->
<svg version="1.1" id="icon" xmlns="http://www.w3.org/2000/svg" xmlns:xlink="http://www.w3.org/1999/xlink" x="0px" y="0px"
	 viewBox="0 0 20 20" style="enable-background:new 0 0 20 20;" xml:space="preserve">
<style type="text/css">
	.st0{fill:#1D1D1B;}
</style>
<path class="st0" d="M10,0C4.5,0,0,4.5,0,10s4.5,10,10,10s10-4.5,10-10S15.5,0,10,0z M11.1,16.2c-0.3,0.3-0.7,0.4-1,0.4
	c-0.4,0-0.7-0.1-1-0.4c-0.6-0.6-0.5-1.5,0-2.1c0.3-0.3,0.6-0.4,1-0.4c0.4,0,0.7,0.1,1,0.4c0.3,0.3,0.4,0.6,0.4,1
	C11.6,15.6,11.4,15.9,11.1,16.2z M13.7,8c-0.1,0.3-0.2,0.5-0.4,0.7c-0.2,0.2-0.3,0.4-0.5,0.5c-0.2,0.1-0.4,0.3-0.5,0.4
	c-0.5,0.3-0.8,0.6-1.1,1.1c-0.2,0.4-0.3,0.8-0.3,1.2c0,0.1,0,0.2,0,0.3s0,0.2,0,0.3h-2l-0.1-0.5c-0.1-0.6-0.1-1.3,0.2-1.9
	c0.3-0.6,0.8-1.1,1.4-1.5c0.1-0.1,0.2-0.2,0.4-0.3c0.1-0.1,0.3-0.2,0.4-0.3c0.1-0.1,0.2-0.2,0.3-0.4c0.1-0.1,0.1-0.3,0.1-0.5
	c0-0.4-0.1-0.7-0.4-0.9c-0.3-0.2-0.7-0.3-1-0.3c-0.2,0-0.4,0-0.7,0.1C9.2,6.2,9,6.3,8.9,6.4C8.7,6.4,8.6,6.5,8.5,6.6
	C8.3,6.7,8.2,6.8,8.2,6.9L7.1,5.4C7.2,5.2,7.4,5.1,7.5,5C7.8,4.8,8,4.7,8.3,4.5C9,4.2,9.7,4,10.5,4c0.4,0,0.9,0.1,1.3,0.2
	c0.4,0.1,0.8,0.3,1.1,0.6c0.3,0.3,0.6,0.6,0.7,0.9c0.2,0.4,0.3,0.8,0.3,1.2C13.9,7.3,13.8,7.7,13.7,8z"/>
</svg>
