<?xml version="1.0" encoding="utf-8"?>
<!-- Generator: Adobe Illustrator 21.1.0, SVG Export Plug-In . SVG Version: 6.00 Build 0)  -->
<svg version="1.1" id="icon" xmlns="http://www.w3.org/2000/svg" xmlns:xlink="http://www.w3.org/1999/xlink" x="0px" y="0px"
	 viewBox="0 0 100 30" style="enable-background:new 0 0 100 30;" xml:space="preserve">
<style type="text/css">
	.st0{fill:#FFFFFF;}
</style>
<path class="st0" d="M55,15.3h-2.2v2.2H55V15.3z M67.5,13.3h-2.3c-0.7,1.5-2.1,2.4-3.8,2.4c-2.4,0-4.4-2.2-4.4-4.9s2-5,4.4-5
	c1.7,0,3.1,0.9,3.8,2.4h2.3c-0.9-2.7-3.2-4.5-6.2-4.5c-3.6,0-6.6,3.2-6.6,7.1s3,7.1,6.6,7.1C64.3,17.8,66.6,16,67.5,13.3z M94.9,3.6
	c-1.8,0-3.2,0.9-4,2.2c-0.8-1.4-2.2-2.2-4-2.2h-5.1v13.8H84V8.8c0-1.8,1.1-3.1,2.9-3.1c1.7,0,2.9,1.3,2.9,3.1v8.7H92V8.8
	c0-1.8,1.1-3.1,2.9-3.1c1.7,0,2.9,1.3,2.9,3.1v8.7h2.2V8.8C100,5.9,97.9,3.6,94.9,3.6z M48.6,12.5V0h-2.2v12.6
	c0,3.4,2.1,5.3,5.2,4.9v-2.1C50.1,15.5,48.6,14.9,48.6,12.5z M42.3,2.2h2.2V0h-2.2V2.2z M42.3,17.5h2.2V4h-2.2V17.5z M81.1,10.8
	c0-3.9-2.9-7.1-6.7-7.1c-3.7,0-6.7,3.2-6.7,7.1s2.9,7.1,6.7,7.1C78.2,17.8,81.1,14.6,81.1,10.8z M74.5,15.7c-2.4,0-4.4-2.2-4.4-4.9
	c0-2.8,2-5,4.4-5c2.5,0,4.5,2.3,4.5,5C78.9,13.5,76.9,15.7,74.5,15.7z M33.8,3.6c-3.7,0-6.7,3-6.7,7.1c0,4,3,7.1,6.6,7.1
	c1.9,0,3.5-1,4.6-2.4v2.1h2.1v-6.7C40.4,6.8,37.5,3.6,33.8,3.6z M33.8,15.8c-2.5,0-4.5-2.2-4.5-5s2-5.1,4.5-5.1
	c2.4,0,4.5,2.3,4.5,5.1C38.2,13.5,36.2,15.8,33.8,15.8z M19.6,0H0v17.4c0,1.5,1,2.9,2.4,3.2l0,0l23.6,6v-20C26.1,3,23.2,0,19.6,0z
	 M22.8,17.4h-3.3V9.8c0-0.7-0.2-2.5-2.4-2.5c-1.4,0-2.5,1-2.5,2.5v7.6h-3.3V9.8c0-0.7-0.2-2.5-2.4-2.5c-1.5,0-2.5,1-2.5,2.5v7.6H3.3
	V4H9c1.7,0,3.1,0.7,4.1,1.8C14,4.7,15.5,4,17.1,4c3.6,0,5.7,2.4,5.7,5.8V17.4z"/>
</svg>
