<svg id="Ebene_1" data-name="Ebene 1" xmlns="http://www.w3.org/2000/svg" width="128" height="128" viewBox="0 0 128 128"><defs><style>.cls-1{fill:#878787;}.cls-2{fill:#76b82a;}</style></defs><path class="cls-1" d="M62.62,73.8V65.73a3.19,3.19,0,0,0-3.22-3.48A3.51,3.51,0,0,0,55.92,66V73.8H52.79V64.05c0-1.63-.06-2.08-1.46-2V60c2-.37,4.31-.49,4.31,2.14.77-1.74,2.88-2.4,4.67-2.4,3.74,0,5.45,2.57,5.45,6V73.8Z"/><path class="cls-1" d="M71.86,65.3h7.58c.09-2.08-1.62-3.16-3.59-3.16a3.71,3.71,0,0,0-4,3.16M82,67.5H71.8c0,2.51,2,4,4.48,4a10.81,10.81,0,0,0,5-.86l.4,2.31a13.18,13.18,0,0,1-5.19,1.17c-4.53.09-7.87-2.82-7.73-7.47s3.4-6.9,7.13-6.9c4.82,0,7,3.2,6.07,7.76"/><path class="cls-1" d="M89.74,60.08H94.5v2.23H89.74V68.5c0,3.5,1.68,3.73,4.5,2.73l.32,2.34c-4.71,1.45-7.87.37-7.87-5V62.31l-2.8-.2v-2h2.8L87,55.84h2.74Z"/><polygon class="cls-1" points="106.39 71.12 106.39 73.8 96.75 73.8 96.75 71.12 99.92 71.12 99.92 56.49 97.01 56.49 97.01 53.84 106.13 53.84 106.13 56.49 103.22 56.49 103.22 71.12 106.39 71.12"/><path class="cls-1" d="M117.19,70.78c4.14,0,6.5-3.2,6.5-7s-2.39-7-6.47-7h-3.88V70.78Zm.06-16.91c6.22,0,9.75,4.68,9.75,9.92s-3.48,10-9.75,10H110V53.87Z"/><polygon class="cls-2" points="22.22 54.15 25.09 51.35 30.48 56.75 45.72 41.59 48.5 44.3 30.39 62.4 22.22 54.15"/><path class="cls-1" d="M44.15,53.85l-2.32,2.32c1.32,4.38,1,7.81-3.58,12.4l-5.33,5.34L13.5,54.49l5.37-5.37c5.72-5.72,10.46-5.29,16-1.9L37,45.08c-6.81-4.65-13.24-4.94-20.22,2L1,62.88,24.53,86.41,40.29,70.65c5.82-5.83,6.27-10.9,3.86-16.8"/></svg>