<svg id="icon" xmlns="http://www.w3.org/2000/svg" viewBox="0 0 48 53.58"><defs><style>.cls-1{fill:#1c449b;}.cls-2{fill:#c2c2c2;}.cls-3{fill:#fff;fill-rule:evenodd;}</style></defs><title>1reg_teaser_plain_56x56</title><polygon class="cls-1" points="33.31 36.1 48 50.15 48 22.8 33.31 36.1"/><path class="cls-1" d="M30.55,43.74a3.87,3.87,0,0,1-5.1,0L20.23,39,4.58,54a3,3,0,0,0,2.33,1.13H49.09A2.93,2.93,0,0,0,51.42,54L35.77,39Z" transform="translate(-4 -1.51)"/><polygon class="cls-1" points="0 22.8 0 50.14 14.69 36.1 0 22.8"/><path class="cls-1" d="M32.66,5.09l-3.5-3.15a1.78,1.78,0,0,0-2.32,0L23.37,5.09Z" transform="translate(-4 -1.51)"/><polygon class="cls-1" points="5.62 16.04 0.6 20.6 5.62 25.18 5.62 16.04"/><polygon class="cls-1" points="42.38 25.15 47.47 20.52 42.38 15.93 42.38 25.15"/><path class="cls-2" d="M44.33,7.7a.62.62,0,0,0-.62-.61H12.3a.62.62,0,0,0-.63.61V28.5l.84.76L26.94,42.35a1.51,1.51,0,0,0,1,.38,1.48,1.48,0,0,0,1-.38L44.33,28.44Z" transform="translate(-4 -1.51)"/><path class="cls-3" d="M26.08,17.64a4.47,4.47,0,1,0,4.47,4.47A4.47,4.47,0,0,0,26.08,17.64Zm1.7,6.43-.19.18h-3l-.19-.19v-.18h3.4Zm0-.38h-3.4l-.76-3.19,1.49,1.69,1-2.06L27,22.19l1.51-1.69Z" transform="translate(-4 -1.51)"/></svg>
