<svg xmlns="http://www.w3.org/2000/svg" xmlns:xlink="http://www.w3.org/1999/xlink" width="64" height="64" viewBox="0 0 64 64"><defs><style>.cls-1{fill:#1c449b;}</style><symbol id="gmx_shopping" data-name="gmx_shopping" viewBox="0 0 40.5 50"><path class="cls-1" d="M19.89,23.19a7.56,7.56,0,1,1-7.56,7.56A7.55,7.55,0,0,1,19.89,23.19ZM39,12.62a3.62,3.62,0,0,0-3.61-3.46h-4v4.93a3.18,3.18,0,0,1-6.36,0V9.61a3.38,3.38,0,0,0,0-.45h-9.6v4.93a3.18,3.18,0,0,1-6.36,0V9.16H5.15a3.62,3.62,0,0,0-3.61,3.46L0,46.21A3.64,3.64,0,0,0,3.47,50H36.88a3.63,3.63,0,0,0,3.62-3.63v-.16ZM34.74,44.83a1.58,1.58,0,0,1-2.22,0L26.68,39a10.67,10.67,0,1,1,2.11-2.33l6,5.95A1.56,1.56,0,0,1,34.74,44.83ZM28.23,15.7a1.61,1.61,0,0,1-1.61-1.61h0V9.61a6.39,6.39,0,0,0-12.78,0h0v4.48a1.61,1.61,0,1,1-3.22,0h0V9.61a9.62,9.62,0,0,1,19.23,0v4.48A1.62,1.62,0,0,1,28.23,15.7Z"/></symbol></defs><title>newtab</title><g id="gmx"><use width="40.5" height="50" transform="translate(11.75 7.06)" xlink:href="#gmx_shopping"/></g></svg>