<svg id="icon" xmlns="http://www.w3.org/2000/svg" width="128" height="128" viewBox="0 0 128 128"><defs><style>.cls-1{fill:#1c449b}</style></defs><title>dp_15433_produkticons_suche_preischeck_icons</title><path class="cls-1" d="M32.85 25H12v-8.67A4.33 4.33 0 0 1 16.33 12H43.5zm26.39 20.93a19.14 19.14 0 1 0 19.14 19.14 19.15 19.15 0 0 0-19.14-19.14zm7-20.93l10.7-13H49.11L38.45 25zM116 16.33v95.34a4.33 4.33 0 0 1-4.33 4.33H16.33a4.33 4.33 0 0 1-4.33-4.33V29.33h55.25a2.16 2.16 0 0 0 1.67-.79l13-15.75a2.17 2.17 0 0 1 1.64-.79h28.11a4.33 4.33 0 0 1 4.33 4.33zM96.83 95.11L81.77 80.05A27 27 0 1 0 76.45 86l14.77 14.77a4 4 0 0 0 5.61-5.61zm8.34-66.86a1.08 1.08 0 0 0-1.09-1.08h-5.41v-5a1.45 1.45 0 0 0-1.44-1.44h-2.54a1.44 1.44 0 0 0-1.44 1.44v5h-5.42a1.08 1.08 0 0 0-1.08 1.08v3.25a1.08 1.08 0 0 0 1.08 1.08h5.42v5.07a1.43 1.43 0 0 0 1.44 1.43h2.54a1.44 1.44 0 0 0 1.44-1.43v-5.07h5.41a1.08 1.08 0 0 0 1.09-1.08z"/></svg>
