<svg id="icon" xmlns="http://www.w3.org/2000/svg" width="128" height="128" viewBox="0 0 128 128"><defs><style>.cls-1{fill:#1c449b}</style></defs><title>dp_15433_produkticons_suche_preischeck_icons</title><path class="cls-1" d="M79.28 60.16A20.32 20.32 0 1 1 59 39.84a20.35 20.35 0 0 1 20.28 20.32zM116 16.33v95.34a4.35 4.35 0 0 1-4.34 4.33H16.34a4.34 4.34 0 0 1-4.34-4.33V16.33A4.34 4.34 0 0 1 16.34 12h95.33a4.35 4.35 0 0 1 4.33 4.33zM98.87 92.06l-16-16a28.76 28.76 0 1 0-5.65 6.26L92.91 98a4.21 4.21 0 0 0 6-6z"/></svg>
