
<svg version="1.1" id="refresh" xmlns="http://www.w3.org/2000/svg" xmlns:xlink="http://www.w3.org/1999/xlink" x="0px" y="0px"
	 width="256px" height="256px" viewBox="0 0 256 256" style="enable-background:new 0 0 256 256;" xml:space="preserve">
<style type="text/css">
	.st0{fill:#003d8f;}
</style>

<g>
	<animateTransform attributeName="transform" type="rotate"
               from="0 128 128" to="360 128 128"
               dur="2s" repeatDur="indefinite" /><path id="refresh_1_" class="st0" d="M33.43,116.54v0.73c0,0.29-0.03,0.58-0.03,0.87L33.43,116.54z M213.3,45.56l-17.27,17.26
	c-17.19-18.11-41.47-29.42-68.36-29.42c-55.85,0-93.66,48.04-94.24,85.2v1.06c0,4.62,3.75,8.37,8.37,8.37h9.42
	c4.63,0,8.37-3.75,8.37-8.37v-2.87c3.47-26.43,29.91-57.21,68.08-57.21c19.66,0,37.39,8.39,49.83,21.76l-16.38,16.38
	c-3.43,3.43-1,9.3,3.85,9.3h49.97c4.17,0,7.65-3.83,7.65-7.99V49.41C222.59,44.55,216.73,42.12,213.3,45.56z M214.2,127.92h-9.42
	c-4.63,0-8.37,3.75-8.37,8.37v2.87c-3.47,26.43-29.91,57.22-68.08,57.22c-19.66,0-37.39-8.39-49.83-21.76l16.38-16.38
	c3.43-3.43,1-9.3-3.85-9.3H41.06c-4.17,0-7.65,3.83-7.65,7.99v49.62c0,4.85,5.87,7.28,9.3,3.85l17.27-17.26
	c17.19,18.11,41.47,29.42,68.36,29.42c55.85,0,93.66-48.04,94.24-85.2v-1.06C222.57,131.66,218.82,127.92,214.2,127.92z
	 M222.57,138.08l0.03-1.6c0,0.29-0.02,0.58-0.03,0.87V138.08z"/>
</g>
</svg>
