<?xml version="1.0" encoding="utf-8"?>
<!-- Generator: Adobe Illustrator 21.1.0, SVG Export Plug-In . SVG Version: 6.00 Build 0)  -->
<svg version="1.1" id="icon" xmlns="http://www.w3.org/2000/svg" xmlns:xlink="http://www.w3.org/1999/xlink" x="0px" y="0px"
	 viewBox="0 0 24 24" style="enable-background:new 0 0 24 24;" xml:space="preserve">
<path d="M12,2C6.5,2,2,6.5,2,12s4.5,10,10,10s10-4.5,10-10S17.5,2,12,2z M18.2,9.1l-6.5,6.5l0,0l-1.1,1.1l0,0
	c-0.2,0.2-0.5,0.2-0.7,0c0,0,0,0,0,0l-1.1-1.1l0,0l-3-3c-0.2-0.2-0.2-0.5,0-0.7c0,0,0,0,0,0l1.1-1.1c0.2-0.2,0.5-0.2,0.7,0
	c0,0,0,0,0,0l2.7,2.6l6.2-6.2c0.2-0.2,0.5-0.2,0.7,0c0,0,0,0,0,0l1.1,1.1C18.4,8.6,18.4,8.9,18.2,9.1C18.2,9.1,18.2,9.1,18.2,9.1z"
	/>
</svg>
