<?xml version="1.0" encoding="utf-8"?>
<!-- Generator: Adobe Illustrator 21.1.0, SVG Export Plug-In . SVG Version: 6.00 Build 0)  -->
<svg version="1.1" id="icon" xmlns="http://www.w3.org/2000/svg" xmlns:xlink="http://www.w3.org/1999/xlink" x="0px" y="0px"
	 viewBox="0 0 20 20" style="enable-background:new 0 0 20 20;" xml:space="preserve">
<path class="st0" d="M19.8,17L11.2,2C10.8,1.3,10,1.1,9.3,1.5C9.1,1.6,8.9,1.8,8.8,2L0.2,17c-0.4,0.7-0.2,1.5,0.5,1.9
	C0.9,18.9,1.1,19,1.4,19h17.3c0.8,0,1.4-0.6,1.4-1.4C20,17.4,19.9,17.2,19.8,17z M9.3,5.8h1.4c0.3,0,0.5,0.2,0.5,0.5c0,0,0,0,0,0
	l-0.2,6.8c0,0.2-0.2,0.4-0.5,0.4h-1c-0.2,0-0.5-0.2-0.5-0.4L8.9,6.3C8.9,6,9.1,5.8,9.3,5.8C9.3,5.8,9.3,5.8,9.3,5.8z M10,17.2
	c-0.6,0-1.1-0.5-1.1-1.1s0.5-1.1,1.1-1.1s1.1,0.5,1.1,1.1l0,0C11.1,16.7,10.6,17.2,10,17.2z"/>
</svg>
